<svg xmlns="http://www.w3.org/2000/svg" viewBox="0 0 64 64">
  <rect width="64" height="64" rx="14" fill="#0f172a"/>
  <path d="M16 24.5c0-4.1 3.4-7.5 7.5-7.5h6.8c2 0 3.9.8 5.3 2.2l2.6 2.6c.7.7 1.7 1.1 2.7 1.1h3.6c4.1 0 7.5 3.4 7.5 7.5v14.1c0 4.1-3.4 7.5-7.5 7.5h-21C19.4 52 16 48.6 16 44.5v-20z" fill="#38bdf8"/>
  <path d="M16 31h36v13.5c0 4.1-3.4 7.5-7.5 7.5h-21C19.4 52 16 48.6 16 44.5V31z" fill="#2563eb"/>
  <path d="M25.2 38l3.2 7.6L32 35.5l3.6 10.1 3.2-7.6h4.5l-6.2 13h-3.4L32 43.1 30.3 51h-3.4l-6.2-13h4.5z" fill="#ffffff"/>
</svg>
